{"title":"Grown Ups 2 2013 BRRip 720p x264 AAC - PRiSTiNE [P2PDL]","uid":9076510,"size":677068008,"categoryP":"video","categoryS":"hd___movies","magnet":"?xt=urn:btih:5a5a30e9b65960de32d2e500dc65bb308a5116bd&amp;dn=Grown+Ups+2+2013+BRRip+720p+x264+AAC+-+PRiSTiNE+%5BP2PDL%5D&amp;tr=udp%3A%2F%2Ftracker.openbittorrent.com%3A80&amp;tr=udp%3A%2F%2Fopen.demonii.com%3A1337&amp;tr=udp%3A%2F%2Ftracker.coppersurfer.tk%3A6969&amp;tr=udp%3A%2F%2Fexodus.desync.com%3A6969","seeders":6,"leechers":1,"uploader":"ValidusVyto","files":-1,"time":1382297092,"description":"_______ Visit us at our Semi Public Bittorrent Community ________\n  &lt;a href=&quot;\nhttp://p2pdl.com&quot; rel=&quot;nofollow&quot; target=&quot;_NEW&quot;&gt;\nhttp://p2pdl.com&lt;/a&gt;  _____________________________ &lt;a href=&quot; http://p2pdl.com&quot; rel=&quot;nofollow&quot; target=&quot;_NEW&quot;&gt; http://p2pdl.com&lt;/a&gt;\n\n\n\nGrown Ups 2 2013 BRRip 720p x264 AAC - PRiSTiNE\n\n\nGenre: Comedy\nPlot: After moving his family back to his hometown to be with his friends and their\nkids, Lenny finds out that between old bullies, new bullies, schizo bus drivers, drunk\ncops on skis, and 400 costumed party crashers sometimes crazy follows you.  \nDirector: Dennis Dugan\nStars: Adam Sandler, Kevin James, Chris Rock.\nRated: PG-13 for crude and suggestive content, language and some male rear nudity.\n\n\nIMDb: &lt;a href=&quot;\nhttp://www.imdb.com/title/tt2191701/&quot; rel=&quot;nofollow&quot; target=&quot;_NEW&quot;&gt;\nhttp://www.imdb.com/title/tt2191701/&lt;/a&gt;\n\n\nFormat                         : MPEG-4\nFile size                      : 636 MiB\nDuration                       : 1h 40mn\nOverall bit rate               : 881 Kbps\n\nVideo\nFormat                         : AVC\nBit rate                       : 799 Kbps\nWidth                          : 1 280 pixels\nHeight                         : 688 pixels\nDisplay aspect ratio           : 1.85:1\nFrame rate mode                : Constant\nFrame rate                     : 23.976 fps\nBit depth                      : 10 bits\nStream size                    : 576 MiB (91%)\nWriting library                : x264 core 138 r2358 \n\nAudio\nFormat                         : AAC\nBit rate mode                  : Variable\nBit rate                       : 80.0 Kbps\nChannel(s)                     : 2 channels\nChannel positions              : Front: L R\nSampling rate                  : 48.0 KHz\nStream size                    : 57.7 MiB (9%)\nLanguage                       : English\n\nSubtitle                       : Yes(English)\n\nSource                         : 720p.BluRay.x264-SPARKS\n &lt;a href=&quot;\nhttp://someimage.com/szV0huw&quot; rel=&quot;nofollow&quot; target=&quot;_NEW&quot;&gt;\nhttp://someimage.com/szV0huw&lt;/a&gt; &lt;a href=&quot;\nhttp://someimage.com/6pBknVv&quot; rel=&quot;nofollow&quot; target=&quot;_NEW&quot;&gt;\nhttp://someimage.com/6pBknVv&lt;/a&gt; &lt;a href=&quot;\nhttp://someimage.com/nrCtoAh&quot; rel=&quot;nofollow&quot; target=&quot;_NEW&quot;&gt;\nhttp://someimage.com/nrCtoAh&lt;/a&gt; &lt;a href=&quot;\nhttp://someimage.com/N1BXkSj&quot; rel=&quot;nofollow&quot; target=&quot;_NEW&quot;&gt;\nhttp://someimage.com/N1BXkSj&lt;/a&gt; &lt;a href=&quot;\nhttp://someimage.com/CmzUMlL&quot; rel=&quot;nofollow&quot; target=&quot;_NEW&quot;&gt;\nhttp://someimage.com/CmzUMlL&lt;/a&gt; &lt;a href=&quot;\nhttp://someimage.com/TF7PUy0&quot; rel=&quot;nofollow&quot; target=&quot;_NEW&quot;&gt;\nhttp://someimage.com/TF7PUy0&lt;/a&gt; &lt;a href=&quot;\nhttp://someimage.com/8kmmBOF&quot; rel=&quot;nofollow&quot; target=&quot;_NEW&quot;&gt;\nhttp://someimage.com/8kmmBOF&lt;/a&gt; &lt;a href=&quot;\nhttp://someimage.com/PfNs6eg&quot; rel=&quot;nofollow&quot; target=&quot;_NEW&quot;&gt;\nhttp://someimage.com/PfNs6eg&lt;/a&gt;\n\n----------------------------------------------------------------------------------------------------\n\n\nEncoded using revolutionary 10bit encoding, which enables us to provide you more crispier \nand sharper images at small sizes, just make sure you follow our instructions without a fault.\nRecommend to you to use latest version of VLC player. Install K-Lite Codec Pack or shark007 codecs\nin case of any kind of problem in playback (For non-VLC Media Player users). Alternatively, install\nCore AVC codecs, the fastest decoder that there is coupled with Community Center Codec Pack and play\non Windows Media Player Classic. Check sample to be sure.\nEnjoy!\n\nEncoder Notes:Looking For Early Access To Anything You Can Provide DVDScr, R5, DVDR, BluRay, Direct\nAudio, Music Releases and Seedboxes. We require dedicated servers, so as to do more \nand fast releases of movies.\nIf You Got anything to offer please contact us at &quot;&lt;a class=&quot;__cf_email__&quot; href=&quot;/cdn-cgi/l/email-protection&quot; data-cfemail=&quot;94e4e6f3d4fce1e7fcbaf7fbf9&quot;&gt;[email&amp;#160;protected]&lt;/a&gt;&lt;script cf-hash='f9e31' type=&quot;text/javascript&quot;&gt;\n/* &lt;![CDATA[ */!function(){try{var t=&quot;currentScript&quot;in document?document.currentScript:function(){for(var t=document.getElementsByTagName(&quot;script&quot;),e=t.length;e--;)if(t[e].getAttribute(&quot;cf-hash&quot;))return t[e]}();if(t&amp;&amp;t.previousSibling){var e,r,n,i,c=t.previousSibling,a=c.getAttribute(&quot;data-cfemail&quot;);if(a){for(e=&quot;&quot;,r=parseInt(a.substr(0,2),16),n=2;a.length-n;n+=2)i=parseInt(a.substr(n,2),16)^r,e+=String.fromCharCode(i);e=document.createTextNode(e),c.parentNode.replaceChild(e,c)}}}catch(u){}}();/* ]]&gt; */&lt;/script&gt;&quot;.\n\nFacebook Fan Page:  \nSearch P2PDL on FB and hit like!!!\n\nFor more of our team uploads visit @                                             &lt;a href=&quot; http://thepiratebay.se/user/vitamin_x&quot; rel=&quot;nofollow&quot; target=&quot;_NEW&quot;&gt; http://thepiratebay.se/user/vitamin_x&lt;/a&gt;\t","torrent":{"xt":"urn:btih:5a5a30e9b65960de32d2e500dc65bb308a5116bd","amp;dn":"Grown+Ups+2+2013+BRRip+720p+x264+AAC+-+PRiSTiNE+%5BP2PDL%5D","amp;tr":["udp%3A%2F%2Ftracker.openbittorrent.com%3A80","udp%3A%2F%2Fopen.demonii.com%3A1337","udp%3A%2F%2Ftracker.coppersurfer.tk%3A6969","udp%3A%2F%2Fexodus.desync.com%3A6969"],"infoHash":"5a5a30e9b65960de32d2e500dc65bb308a5116bd","infoHashBuffer":{"type":"Buffer","data":[90,90,48,233,182,89,96,222,50,210,229,0,220,101,187,48,138,81,22,189]},"announce":[],"urlList":[]}}